<?xml version="1.0" encoding="UTF-8"?>
<svg width="29px" height="35px" viewBox="0 0 29 35" version="1.1" xmlns="http://www.w3.org/2000/svg" xmlns:xlink="http://www.w3.org/1999/xlink">
    <!-- Generator: Sketch 58 (84663) - https://sketch.com -->
    <title>033-crown</title>
    <desc>Created with Sketch.</desc>
    <g id="Site" stroke="none" stroke-width="1" fill="none" fill-rule="evenodd">
        <g id="Main-Page" transform="translate(-1015.000000, -1844.000000)" fill="#005691">
            <g id="3" transform="translate(974.000000, 1622.000000)">
                <g id="033-crown" transform="translate(41.000000, 222.000000)">
                    <path d="M9.63635266,7 C9.28503017,7 9,6.71994537 9,6.37504985 C9,6.03002254 9.28516436,5.7500997 9.63635266,5.7500997 C11.476166,5.7500997 14.0414375,3.20509499 14.875191,2.2245743 C15.1005044,1.95954377 15.5013448,1.92396036 15.771211,2.14523647 C16.0410771,2.36651257 16.0773098,2.75964338 15.8526673,3.02520107 C15.507652,3.43190629 12.4002327,7 9.63635266,7 L9.63635266,7 Z" id="Path"></path>
                    <path d="M24.7708386,18 L4.22903396,18 C3.94633396,18 3.70159909,17.8113215 3.63942802,17.546486 C3.51495849,17.0128969 3.14218688,16.4554322 2.79425823,15.9798792 C2.67462988,15.816668 2.55984273,15.6535793 2.44989676,15.4897559 C0.847080789,13.1178679 0,10.2789976 0,7.28181373 L0,5.80642397 C0,1.21349278 5.13777622,0 7.85406581,0 C11.2960242,0 13.5960989,1.44404538 14.4998726,2.13558077 C15.4037737,1.44404538 17.7038484,0 21.1458068,0 C23.8620964,0 29,1.21349278 29,5.80642397 L29,7.28181373 C29,10.2791201 28.1529192,13.1178679 26.5501032,15.4903681 C26.4401573,15.6535793 26.3253701,15.816668 26.2057418,15.9798792 C25.8576857,16.45482 25.4849141,17.0128969 25.360572,17.546486 C25.2982735,17.8111991 25.0535386,18 24.7708386,18 Z M4.6773536,16.8386662 L24.323156,16.8386662 C24.5394807,16.2794874 24.8893204,15.7604685 25.2185213,15.3116072 C25.3291042,15.1606399 25.4353556,15.0096727 25.5368932,14.8593176 C27.0116725,12.6743939 27.7916136,10.0544445 27.7916136,7.28193617 L27.7916136,5.8065464 C27.7916136,1.22696106 21.4164038,1.16194596 21.1451698,1.16133377 C17.2379475,1.16133377 14.9488292,3.29348625 14.9258973,3.31491307 C14.6896982,3.53958861 14.3078812,3.53958861 14.0728287,3.31381112 C14.0510434,3.29348625 11.7619251,1.16133377 7.85406581,1.16133377 C7.58346879,1.16182352 1.20825902,1.22696106 1.20825902,5.80642397 L1.20825902,7.28181373 C1.20825902,10.0544445 1.98820015,12.6742715 3.4629794,14.8580932 C3.56566358,15.0096727 3.67140535,15.1606399 3.78198831,15.3116072 C4.11118921,15.7609583 4.46051926,16.2794874 4.6773536,16.8386662 Z" id="Shape" fill-rule="nonzero"></path>
                    <path d="M23.400038,20 L6.59996204,20 C6.26873036,20 6,19.7012617 6,19.3333568 L6,16.6666432 C6,16.2985977 6.26885688,16 6.59996204,16 L23.400038,16 C23.7312696,16 24,16.2987383 24,16.6666432 L24,19.3333568 C24,19.7012617 23.7312696,20 23.400038,20 Z M7.19992409,18.6665729 L22.7999494,18.6665729 L22.7999494,17.3331459 L7.19992409,17.3331459 L7.19992409,18.6665729 Z" id="Shape" fill-rule="nonzero"></path>
                    <path d="M16.4285908,35 L12.5714092,35 C12.3278106,35 12.1053591,34.877697 11.9960989,34.6839402 L10.0675081,31.2553602 C10.0231805,31.1765561 10,31.0884738 10,30.9999096 L10,19.5713898 C10,19.2559325 10.2880618,19 10.6428184,19 L18.3571816,19 C18.7120737,19 19,19.256053 19,19.5713898 L19,30.9999096 C19,31.0884738 18.9768195,31.1764356 18.9324919,31.2553602 L17.0039011,34.6839402 C16.8947765,34.877697 16.672325,35 16.4285908,35 Z M12.9687312,33.8570998 L16.0312688,33.8570998 L17.7142276,30.8650751 L17.7142276,20.1427797 L11.2856368,20.1427797 L11.2856368,30.8650751 L12.9687312,33.8570998 Z" id="Shape" fill-rule="nonzero"></path>
                    <path d="M19.3889247,23 L9.61107532,23 C9.27370813,23 9,22.7759384 9,22.5 C9,22.2239561 9.273837,22 9.61107532,22 L19.3889247,22 C19.7262919,22 20,22.2240616 20,22.5 C20,22.7759384 19.7262919,23 19.3889247,23 Z" id="Path"></path>
                    <path d="M19.3889247,25 L9.61107532,25 C9.27370813,25 9,24.7759384 9,24.5 C9,24.2240616 9.273837,24 9.61107532,24 L19.3889247,24 C19.7262919,24 20,24.2240616 20,24.5 C20,24.7759384 19.7262919,25 19.3889247,25 Z" id="Path"></path>
                    <path d="M19.3889247,28 L9.61107532,28 C9.27370813,28 9,27.7759384 9,27.5 C9,27.2240616 9.273837,27 9.61107532,27 L19.3889247,27 C19.7262919,27 20,27.2240616 20,27.5 C20,27.7759384 19.7262919,28 19.3889247,28 Z" id="Path"></path>
                    <path d="M19.3889247,30 L9.61107532,30 C9.27370813,30 9,29.7759384 9,29.5 C9,29.2240616 9.273837,29 9.61107532,29 L19.3889247,29 C19.7262919,29 20,29.2240616 20,29.5 C20,29.7759384 19.7262919,30 19.3889247,30 Z" id="Path"></path>
                    <path d="M19.3889247,32 L9.61107532,32 C9.27370813,32 9,31.7759384 9,31.5 C9,31.2240616 9.273837,31 9.61107532,31 L19.3889247,31 C19.7262919,31 20,31.2240616 20,31.5 C20,31.7759384 19.7262919,32 19.3889247,32 Z" id="Path"></path>
                </g>
            </g>
        </g>
    </g>
</svg>