<?xml version="1.0" encoding="UTF-8"?>
<svg width="28px" height="34px" viewBox="0 0 28 34" version="1.1" xmlns="http://www.w3.org/2000/svg" xmlns:xlink="http://www.w3.org/1999/xlink">
    <!-- Generator: Sketch 58 (84663) - https://sketch.com -->
    <title>Group 12</title>
    <desc>Created with Sketch.</desc>
    <g id="Site" stroke="none" stroke-width="1" fill="none" fill-rule="evenodd">
        <g id="Main-Page" transform="translate(-454.000000, -1844.000000)" fill="#005691">
            <g id="1" transform="translate(405.000000, 1622.000000)">
                <g id="Group-12" transform="translate(49.000000, 222.000000)">
                    <path d="M24.8417822,25.2621328 C24.5630704,25.2463281 24.3240207,25.4576328 24.3086003,25.7327539 C24.202947,27.6121172 23.781344,29.5266094 23.1518014,30.9852227 C22.5538403,32.3709219 21.9057798,33.0019805 21.5566324,33.0019805 C21.5546123,33.0019805 21.3474134,32.9931484 21.0327431,32.2266875 C20.769317,31.5850039 20.5255536,30.6462852 20.2675818,29.6525156 C19.3513815,26.1240195 18.0966733,21.2915703 14.0000337,21.2915703 C9.90339407,21.2915703 8.64868583,26.1240195 7.73248552,29.6525156 C7.47451378,30.6462852 7.23068302,31.5850039 6.96732425,32.2266875 C6.65265396,32.9931484 6.44545505,33.0019805 6.44343491,33.0019805 C6.23946822,33.0019805 5.86776267,32.7665039 5.43632835,32.1056953 C4.61440119,30.8469648 3.96788941,28.6895586 3.74910837,26.4753086 C3.48776974,23.8314766 3.8415634,21.2959531 4.74510417,19.3356406 C5.76210941,17.1291602 4.83250884,16.0886406 3.75604418,14.8839648 C2.53359082,13.5157969 1.01208957,11.8130078 1.01208957,7.41877344 C1.01208957,3.69836328 4.204313,0.998019531 8.60242465,0.998019531 C10.3192733,0.998019531 12.0728212,1.80883984 13.3644306,3.18384766 C13.3393136,3.219375 13.3139272,3.25523438 13.2891468,3.29036328 C12.4262782,4.51429688 11.856195,5.32285938 9.68191952,5.32285938 C9.40246697,5.32285938 9.17587473,5.54631641 9.17587473,5.82190234 C9.17587473,6.09748828 9.40246697,6.32094531 9.68191952,6.32094531 C12.3851347,6.32094531 13.1891499,5.18055078 14.1200973,3.86019531 C14.1955158,3.75321484 14.2731564,3.64364453 14.3527499,3.5328125 C14.3716045,3.51634375 14.3896511,3.49887891 14.4060142,3.47955469 C15.7358043,1.90253906 17.555074,0.998019531 19.3976427,0.998019531 C23.7958217,0.998019531 26.9879778,3.69829688 26.9879778,7.41877344 C26.9879778,11.8129414 25.4665439,13.5157305 24.2440905,14.8839648 C23.1676258,16.0886406 22.2380253,17.1291602 23.2550305,19.3356406 C23.8085486,20.5364648 24.1537903,21.9194414 24.281261,23.4458555 C24.3042233,23.7205117 24.5475827,23.9245117 24.8271026,23.9021992 C25.1056124,23.8795547 25.3128113,23.6385664 25.289849,23.3639102 C25.1528163,21.7226133 24.7781479,20.2283398 24.1763485,18.9225273 C23.4303786,17.3041406 23.956086,16.7157813 25.0033934,15.5436445 C26.2680676,14.1283281 28,12.1899297 28,7.41877344 C28,5.39092578 27.1461546,3.521125 25.5956981,2.15382031 C24.0208651,0.764867188 21.8196545,0 19.3976427,0 C17.4302968,0 15.4976973,0.871847656 14.0161948,2.41048047 C12.5433115,0.892101562 10.5577844,0 8.60242465,0 C6.18041283,0 3.97920219,0.764867188 2.40430193,2.15382031 C0.853845358,3.521125 0,5.39092578 0,7.41877344 C0,12.1899297 1.73193238,14.1283281 2.99660665,15.5437773 C4.04391397,16.7159141 4.56962144,17.3042734 3.8236515,18.9226602 C1.63914067,23.662207 2.88738447,30.0455078 4.58531119,32.6459766 C5.17202685,33.5444531 5.79712515,34 6.44343491,34 C7.6483804,34 8.09496577,32.2802773 8.71292624,29.9000781 C9.15715478,28.1892539 9.66057338,26.2501914 10.5002104,24.7372578 C11.4141886,23.09025 12.5590686,22.2895898 14.0000337,22.2895898 C15.4409987,22.2895898 16.5858787,23.09025 17.4998569,24.7372578 C18.3393593,26.2500586 18.8429126,28.1892539 19.2871411,29.9000781 C19.9051016,32.2802773 20.3516869,34 21.5566324,34 C22.4555942,34 23.3528726,33.0681875 24.0830181,31.3760898 C24.7566671,29.8151445 25.207158,27.778332 25.3190737,25.7880703 C25.3345614,25.5128164 25.1208981,25.2773398 24.8417822,25.2621328 Z" id="Path"></path>
                    <path d="M23.47544,5.79721109 L21.2027191,5.79721109 L21.2027191,3.52449017 C21.2027191,3.23485155 20.9678676,3 20.6782289,3 L17.3217013,3 C17.0320626,3 16.7972111,3.23485155 16.7972111,3.52449017 L16.7972111,5.79721109 L14.5244902,5.79721109 C14.2348516,5.79721109 14,6.03206265 14,6.32170126 L14,9.67829874 C14,9.96793735 14.2348516,10.2027889 14.5244902,10.2027889 L16.7972111,10.2027889 L16.7972111,12.4755098 C16.7972111,12.7651484 17.0320626,13 17.3217013,13 L20.6782987,13 C20.9679374,13 21.2027889,12.7651484 21.2027889,12.4755098 L21.2027889,10.2027889 L23.4755098,10.2027889 C23.7651484,10.2027889 24,9.96793735 24,9.67829874 L24,6.32170126 C23.9998604,6.03199285 23.7650787,5.79721109 23.47544,5.79721109 Z M17.8461216,4.04898033 L20.1538086,4.04898033 L20.1538086,5.79721109 L17.8461216,5.79721109 L17.8461216,4.04898033 Z M20.1538086,11.9509499 L17.8461216,11.9509499 L17.8461216,10.2027191 L20.1538086,10.2027191 L20.1538086,11.9509499 Z M22.9509499,9.15380857 L15.0489803,9.15380857 L15.0489803,6.84612163 L22.9509499,6.84612163 L22.9509499,9.15380857 Z" id="Shape" fill-rule="nonzero"></path>
                </g>
            </g>
        </g>
    </g>
</svg>