<?xml version="1.0" encoding="UTF-8"?>
<svg width="26px" height="35px" viewBox="0 0 26 35" version="1.1" xmlns="http://www.w3.org/2000/svg" xmlns:xlink="http://www.w3.org/1999/xlink">
    <!-- Generator: Sketch 58 (84663) - https://sketch.com -->
    <title>microscope 2</title>
    <desc>Created with Sketch.</desc>
    <g id="Site" stroke="none" stroke-width="1" fill="none" fill-rule="evenodd">
        <g id="Main-Page-Copy-2" transform="translate(-728.000000, -4150.000000)">
            <g id="Servises-icons" transform="translate(0.000000, 4092.000000)">
                <g id="Group-15" transform="translate(708.000000, 43.000000)">
                    <g id="Group-10-Copy">
                        <g id="microscope-2" transform="translate(20.000000, 15.000000)">
                            <g id="microscope">
                                <path d="M5,25.990099 C4.632,25.990099 4.33333333,26.3005941 4.33333333,26.6831683 C4.33333333,27.0657426 4.632,27.3762376 5,27.3762376 C5.368,27.3762376 5.66666667,27.0657426 5.66666667,26.6831683 C5.66666667,26.3005941 5.368,25.990099 5,25.990099 Z" id="Path" fill="#005691"></path>
                                <g id="Group">
                                    <path d="M24.08523,28.7924464 L23.552555,27.115039 C25.133745,25.3397271 26,23.0444639 26,20.6043567 C26,16.3072027 23.266035,12.5503996 19.42122,11.3759552 L21.0145,8.47921053 C21.193965,8.15288499 21.08743,7.73568226 20.776535,7.54724172 L20.213635,7.20611111 L20.863635,6.0244347 L21.426535,6.3655653 C21.736715,6.55352827 22.134515,6.44293372 22.314435,6.1158577 L23.614435,3.75250487 C23.793835,3.42638402 23.6873,3.00890838 23.376535,2.82053606 L18.873335,0.0914912281 C18.56257,-0.0968128655 18.1649,0.0149415205 17.985435,0.34119883 L16.685435,2.70455166 C16.506035,3.03067251 16.612505,3.44814815 16.923335,3.63652047 L17.486235,3.97765107 L16.836235,5.15932749 L16.273335,4.81819688 C15.9627,4.62989279 15.564835,4.74164717 15.385435,5.06790448 L10.510435,13.9310916 L9.947535,13.589961 C9.636965,13.4015887 9.2391,13.5134113 9.059635,13.8396686 L7.759635,16.2030897 C7.580105,16.5294152 7.68664,16.9466179 7.997535,17.1350585 L14.752335,21.2286257 C15.061085,21.4158382 15.459665,21.307154 15.640235,20.9789181 L16.940235,18.6154971 C17.119765,18.2891715 17.01323,17.8719688 16.702335,17.6835283 L16.139435,17.3423977 L16.61946,16.4697173 C18.88575,16.2992203 20.8,18.2095517 20.8,20.6043567 C20.8,21.3345127 20.620665,22.0315789 20.2787,22.6499805 C19.434935,22.202963 18.503095,21.9688791 17.55,21.9688791 C16.188575,21.9688791 14.8668,22.4519201 13.799955,23.3334016 L7.4568,23.3334016 C6.218095,23.3334016 5.10419,24.0559162 4.54961,25.2192398 L3.96851,26.4398051 C3.867825,26.651306 3.878615,26.9023782 3.997045,27.1035088 C4.115475,27.3046394 4.32471,27.427037 4.549935,27.427037 L11.44832,27.427037 L11.014965,28.7915595 L1.95,28.7915595 L1.95,28.7914912 C0.87477,28.7914912 0,29.7096784 0,30.8382749 L0,34.2495809 C0,34.6263255 0.291005,34.9318421 0.65,34.9318421 L25.35,34.9318421 C25.708995,34.9318421 26,34.6263255 26,34.2495809 L26,30.8382749 C26,29.7220955 25.14421,28.8123002 24.08523,28.7924464 Z M18.7863,1.61429825 L22.1637,3.66108187 L21.5137,4.84269006 C20.761845,4.38707602 19.013475,3.32745614 18.1363,2.79590643 L18.7863,1.61429825 Z M18.612165,4.65991228 L19.7379,5.34217349 L19.0879,6.5238499 L17.962165,5.84158869 L18.612165,4.65991228 Z M14.8395,19.7058187 L9.2105,16.2945127 L9.8605,15.1128363 C10.45798,15.4749123 14.13659,17.704269 14.926405,18.1829435 C14.92647,18.1830117 14.926535,18.1830117 14.926665,18.1830799 C14.92673,18.1830799 14.926795,18.1831481 14.92686,18.1831481 L15.4895,18.5241423 L14.8395,19.7058187 Z M15.013635,16.6601365 L11.636235,14.6133528 L16.1863,6.3410039 C17.509115,7.14266082 18.285215,7.6130117 18.714735,7.87329435 C18.61652,7.81373294 18.53956,7.7671345 18.530655,7.76174464 C18.54697,7.77163743 18.80099,7.92555556 19.5637,8.38778752 C18.891925,9.60917154 15.583035,15.6249415 15.013635,16.6601365 Z M17.36332,15.1174756 L18.74886,12.5984308 C22.22324,13.4859162 24.7,16.7790546 24.7,20.6043567 C24.7,22.4562183 24.117405,24.2109259 23.04263,25.6453119 C22.65497,24.7737232 22.081605,24.0018811 21.370635,23.3942593 C21.849425,22.5541228 22.1,21.6021637 22.1,20.6043567 C22.1,17.7316959 20.01428,15.3667739 17.36332,15.1174756 Z M17.55,23.3334016 C19.62311,23.3334016 21.42621,24.7346296 22.06633,26.749961 L22.71464,28.7914912 L12.385425,28.7914912 L13.033605,26.7503021 C13.68731,24.692193 15.521285,23.3334016 17.55,23.3334016 Z M5.601505,26.0624464 C5.646485,26.0071832 6.06034,24.6911014 7.456865,24.6911014 L12.57555,24.6911014 C12.29527,25.1139669 12.06413,25.5794737 11.88837,26.0624464 L5.601505,26.0624464 Z M24.7,33.5673197 L1.3,33.5673197 L1.3,30.8382749 C1.3,30.462076 1.59159,30.1560136 1.95,30.1560136 C2.48495,30.1560136 22.944805,30.1560136 24.05,30.1560136 C24.408475,30.1560136 24.7,30.462076 24.7,30.8382749 L24.7,33.5673197 Z" id="Shape" fill="#005691" fill-rule="nonzero"></path>
                                    <path d="M18.793905,7.92125731 C18.833165,7.95615731 18.869175,7.98805731 18.901675,8.01695731 C18.86586,7.98515731 18.829395,7.95275731 18.793905,7.92125731 Z" id="Path" fill="#000000"></path>
                                    <path d="M18.789615,7.91866472 C18.791815,7.91996472 18.794015,7.92116472 18.796215,7.92246472 C18.793915,7.92116472 18.791815,7.91996472 18.789615,7.91866472 Z" id="Path" fill="#000000"></path>
                                    <path d="M18.714735,7.87329435 C18.717935,7.87519435 18.721235,7.87699435 18.724435,7.87889435 C18.721235,7.87699435 18.717935,7.87509435 18.714735,7.87329435 Z" id="Path" fill="#000000"></path>
                                    <path d="M18.72104,7.87711501 C18.7558597,7.89831501 18.7893512,7.91871501 18.82104,7.93801501 C18.7867895,7.91711501 18.7532032,7.89661501 18.72104,7.87711501 Z" id="Path" fill="#000000"></path>
                                    <path d="M18.901675,7.98654971 C18.910975,7.99194971 18.920275,7.99724971 18.929475,8.00254971 C18.920175,7.99724971 18.911275,7.99204971 18.901675,7.98654971 Z" id="Path" fill="#000000"></path>
                                    <path d="M19.17149,8.15008772 C19.17489,8.15208772 19.17779,8.15378772 19.18019,8.15508772 C19.17789,8.15378772 19.17499,8.15208772 19.17149,8.15008772 Z" id="Path" fill="#000000"></path>
                                    <path d="M19.155175,8.14019493 C19.165675,8.14629493 19.173975,8.15109493 19.180275,8.15469493 C19.173775,8.15089493 19.165475,8.14609493 19.155175,8.14019493 Z" id="Path" fill="#000000"></path>
                                    <path d="M19.177145,8.15349903 C19.186645,8.15899903 19.186045,8.15869903 19.177145,8.15349903 L19.177145,8.15349903 Z" id="Path" fill="#000000"></path>
                                    <path d="M19.064175,8.08506823 C19.071575,8.08936823 19.078875,8.09356823 19.085775,8.09756823 C19.078775,8.09346823 19.071575,8.08926823 19.064175,8.08506823 Z" id="Path" fill="#000000"></path>
                                    <path d="M19.078215,8.09352827 C19.119938,8.12202827 19.1545664,8.14572827 19.178215,8.16192827 C19.1565089,8.14702827 19.1238231,8.12472827 19.078215,8.09352827 Z" id="Path" fill="#000000"></path>
                                    <path d="M19.043115,8.07230994 C19.054215,8.07870994 19.065015,8.08490994 19.075515,8.09100994 C19.065215,8.08500994 19.054415,8.07880994 19.043115,8.07230994 Z" id="Path" fill="#000000"></path>
                                    <path d="M18.91968,7.99746589 C18.9683,8.03688195 19.00925,8.07000238 19.043115,8.09746589 C19.005805,8.06726516 18.96362,8.03304983 18.91968,7.99746589 Z" id="Path" fill="#000000"></path>
                                </g>
                                <path d="M10.3333333,25.990099 L7.66666667,25.990099 C7.29846667,25.990099 7,26.3004554 7,26.6831683 C7,27.0658812 7.29846667,27.3762376 7.66666667,27.3762376 L10.3333333,27.3762376 C10.7015333,27.3762376 11,27.0658812 11,26.6831683 C11,26.3004554 10.7015333,25.990099 10.3333333,25.990099 Z" id="Path" fill="#005691"></path>
                            </g>
                        </g>
                    </g>
                </g>
            </g>
        </g>
    </g>
</svg>