<?xml version="1.0" encoding="UTF-8"?>
<svg width="32px" height="36px" viewBox="0 0 32 36" version="1.1" xmlns="http://www.w3.org/2000/svg" xmlns:xlink="http://www.w3.org/1999/xlink">
    <!-- Generator: Sketch 58 (84663) - https://sketch.com -->
    <title>018-tooth-8</title>
    <desc>Created with Sketch.</desc>
    <g id="Site" stroke="none" stroke-width="1" fill="none" fill-rule="evenodd">
        <g id="Main-Page-Copy-2" transform="translate(-724.000000, -4352.000000)" fill="#005691">
            <g id="Servises-icons" transform="translate(0.000000, 4092.000000)">
                <g id="Group-21" transform="translate(706.000000, 245.000000)">
                    <g id="018-tooth-8-2" transform="translate(18.000000, 15.000000)">
                        <g id="018-tooth-8">
                            <path d="M29.1405894,7.68144529 C27.0950547,7.68144529 25.4308392,5.65822781 25.4308392,3.17149589 C25.4308392,2.8818866 25.1740309,2.64705882 24.8571429,2.64705882 C24.5402548,2.64705882 24.2834465,2.8818866 24.2834465,3.17149589 C24.2834465,5.65829759 22.619231,7.68144529 20.5736963,7.68144529 C20.2568083,7.68144529 20,7.91627306 20,8.20588235 C20,8.49549164 20.2568083,8.73031942 20.5736963,8.73031942 C22.619231,8.73031942 24.2834465,10.7535369 24.2834465,13.2402688 C24.2834465,13.5298781 24.5402548,13.7647059 24.8571429,13.7647059 C25.1740309,13.7647059 25.4308392,13.5298781 25.4308392,13.2402688 C25.4308392,10.7534671 27.0950547,8.73031942 29.1405894,8.73031942 C29.4574774,8.73031942 29.7142857,8.49549164 29.7142857,8.20588235 C29.7142857,7.91627306 29.4574774,7.68144529 29.1405894,7.68144529 Z M24.8571429,10.6211541 C24.3632983,9.56767409 23.5810407,8.7160832 22.6325142,8.20581257 C23.5810407,7.69561172 24.3632983,6.84395105 24.8571429,5.79047108 C25.3509874,6.84395105 26.133245,7.69554193 27.0817715,8.20581257 C26.133245,8.7160832 25.3509874,9.56774387 24.8571429,10.6211541 Z" id="Shape" fill-rule="nonzero"></path>
                            <path d="M21.1278072,14.0273108 C19.7503047,14.0273108 18.5864785,12.4534247 18.5864785,10.5903363 C18.5864785,10.2968196 18.3239484,10.0588235 18,10.0588235 C17.6760516,10.0588235 17.4135215,10.2968196 17.4135215,10.5903363 C17.4135215,12.453354 16.2497734,14.0273108 14.8721928,14.0273108 C14.5483224,14.0273108 14.2857143,14.2653068 14.2857143,14.5588235 C14.2857143,14.8523402 14.5483224,15.0903363 14.8721928,15.0903363 C16.2496953,15.0903363 17.4135215,16.6642224 17.4135215,18.5273108 C17.4135215,18.8208275 17.6760516,19.0588235 18,19.0588235 C18.3239484,19.0588235 18.5864785,18.8208275 18.5864785,18.5273108 C18.5864785,16.6642931 19.7502266,15.0903363 21.1278072,15.0903363 C21.4517556,15.0903363 21.7142857,14.8523402 21.7142857,14.5588235 C21.7142857,14.2653068 21.4517556,14.0273108 21.1278072,14.0273108 Z M18.4389029,15.4122852 C18.273768,15.6218491 18.1271289,15.8481045 18.000078,16.0879394 C17.8730272,15.8481045 17.7263881,15.6218491 17.5612532,15.4122852 C17.2879535,15.0655112 16.9768038,14.7792793 16.6381837,14.5588235 C16.9768038,14.3383677 17.2879535,14.0521359 17.5612532,13.7053618 C17.7263881,13.495798 17.8730272,13.2695426 18.000078,13.0297076 C18.1271289,13.2695426 18.273768,13.495798 18.4389029,13.7053618 C18.7122026,14.0521359 19.0233523,14.3383677 19.3619724,14.5588235 C19.0233523,14.7792793 18.7122026,15.0655112 18.4389029,15.4122852 Z" id="Shape" fill-rule="nonzero"></path>
                            <path d="M30.2706644,18.2626049 C28.8931618,18.2626049 27.7293356,16.6887188 27.7293356,14.8256304 C27.7293356,14.5321137 27.4668055,14.2941176 27.1428571,14.2941176 C26.8189087,14.2941176 26.5563787,14.5321137 26.5563787,14.8256304 C26.5563787,16.6886481 25.3926305,18.2626049 24.0150499,18.2626049 C23.6911015,18.2626049 23.4285714,18.5006009 23.4285714,18.7941176 C23.4285714,19.0876343 23.6911015,19.3256304 24.0150499,19.3256304 C25.3925525,19.3256304 26.5563787,20.8995165 26.5563787,22.7626049 C26.5563787,23.0561216 26.8189087,23.2941176 27.1428571,23.2941176 C27.4668055,23.2941176 27.7293356,23.0561216 27.7293356,22.7626049 C27.7293356,20.8995872 28.8930838,19.3256304 30.2706644,19.3256304 C30.5946128,19.3256304 30.8571429,19.0876343 30.8571429,18.7941176 C30.8571429,18.5006009 30.5946128,18.2626049 30.2706644,18.2626049 Z M27.58176,19.6475086 C27.4166251,19.8570725 27.269986,20.0833279 27.1429352,20.3231628 C27.0158844,20.0833279 26.8692452,19.8570725 26.7041104,19.6475086 C26.4308106,19.3007345 26.1196609,19.0145734 25.7810408,18.7940469 C26.1196609,18.5735911 26.4308106,18.2873593 26.7041104,17.9405852 C26.8692452,17.7310214 27.0158844,17.504766 27.1429352,17.264931 C27.269986,17.504766 27.4166251,17.7310214 27.58176,17.9405852 C27.8550598,18.2873593 28.1662094,18.5735204 28.5048295,18.7940469 C28.1661314,19.0145734 27.8550598,19.3008053 27.58176,19.6475086 Z" id="Shape" fill-rule="nonzero"></path>
                            <path d="M28.980768,24.1205742 C28.9395737,23.8359836 28.6510615,23.6356291 28.3377564,23.6731134 C28.0239173,23.7105978 27.8028416,23.971605 27.8441884,24.2562648 C28.4968119,28.7523116 26.9572154,33.0977295 25.594754,34.5059514 C25.3153198,34.794899 25.0422935,34.9606739 24.8460106,34.9606739 C24.843722,34.9606739 24.6089911,34.9514757 24.2525084,34.1532389 C23.954079,33.4849525 23.677925,32.5073164 23.3855985,31.4723473 C22.3477325,27.7974982 20.9263024,22.7647059 16.2853136,22.7647059 C11.6443247,22.7647059 10.2228946,27.7974982 9.18495234,31.4722782 C8.89262581,32.5072473 8.61647183,33.4848833 8.31811873,34.1531697 C7.96163599,34.9514065 7.72690511,34.9606047 7.72461654,34.9606047 C7.54442988,34.9606047 7.2942893,34.8176524 7.03812216,34.5684714 C6.34712693,33.8961046 5.66078513,32.5298624 5.20215592,30.9138167 C4.68303222,29.0848296 4.47713731,27.0534131 4.62238514,25.1934426 C4.64473683,24.907123 4.40680196,24.6585645 4.09097945,24.6383008 C3.77492809,24.6177605 3.50098639,24.833745 3.47863471,25.1200646 C3.13748537,29.4889274 4.59408317,33.7151838 6.1992091,35.2770777 C6.6923194,35.7568359 7.20549283,36 7.72454025,36 C9.0895953,36 9.59552159,34.2089813 10.2955948,31.7301041 C10.7988511,29.9483527 11.3691625,27.9289008 12.320368,26.3532442 C13.3557928,24.637955 14.6528011,23.8041012 16.2852373,23.8041012 C17.9176734,23.8041012 19.2146817,24.637955 20.2501066,26.3532442 C21.2011595,27.9287625 21.7715471,29.9483527 22.2748034,31.7301041 C22.9749529,34.2089813 23.4808792,36 24.8459343,36 C25.3955722,36 25.9375816,35.7278581 26.4566291,35.191251 C28.184346,33.4055576 29.6404861,28.6651709 28.980768,24.1205742 Z" id="Path"></path>
                            <path d="M29.2522967,2.29801808 C27.4524833,0.816074868 24.936808,0 22.1687878,0 C19.9204641,0 17.7117736,0.930217655 16.0185468,2.57186158 C14.3352477,0.951827555 12.0659914,0 9.8313661,0 C7.06334594,0 4.54767058,0.816074868 2.74778025,2.29801808 C0.975825613,3.7568635 0,5.75184701 0,7.9154586 C0,13.0060427 1.97935606,15.0742164 3.42470155,16.5844296 C4.62162708,17.8349698 5.22243706,18.4627905 4.36989793,20.189457 C3.99696016,20.9449533 3.69697844,21.7701681 3.47826422,22.642287 C3.40830952,22.9214444 3.59947284,23.2083956 3.90099372,23.2783975 C4.21082605,23.3503124 4.53351034,23.1681515 4.60531202,22.8817672 C4.80663377,22.0786583 5.0817581,21.3210364 5.42291228,20.6300864 C6.58520678,18.2758826 5.52280357,17.1657714 4.29255529,15.880372 C2.89546237,14.4206763 1.15659962,12.6038859 1.15659962,7.9154586 C1.15659962,3.94596785 4.80486374,1.06483671 9.83128914,1.06483671 C11.7934066,1.06483671 13.7973892,1.92994125 15.2735948,3.39707637 C15.2448895,3.43498226 15.2158764,3.47324241 15.1875559,3.51072319 C14.2014179,4.816528 13.5498927,5.67922358 11.0650005,5.67922358 C10.7456254,5.67922358 10.4866622,5.917641 10.4866622,6.21167736 C10.4866622,6.50571371 10.7456254,6.74413114 11.0650005,6.74413114 C14.1543967,6.74413114 15.0732735,5.52738746 16.1371389,4.11863449 C16.2234087,4.00449171 16.3121411,3.88758569 16.4031822,3.76933348 C16.4246534,3.75176215 16.4452782,3.73319889 16.463902,3.71251007 C17.9837427,2.02991361 20.062913,1.06483671 22.1686339,1.06483671 C27.1951363,1.06483671 30.8433234,3.94589699 30.8433234,7.9154586 C30.8433234,11.7014423 29.6854925,13.5903602 28.6767289,14.8130555 C28.4835647,15.0472218 28.5331255,15.3812896 28.7875482,15.5591284 C29.04174,15.7369673 29.4046733,15.6913385 29.5979144,15.4571722 C30.716266,14.1016292 32,12.019285 32,7.9154586 C32,5.75191786 31.0242513,3.75693435 29.2522967,2.29801808 Z" id="Path"></path>
                        </g>
                    </g>
                </g>
            </g>
        </g>
    </g>
</svg>