<?xml version="1.0" encoding="UTF-8"?>
<svg width="30px" height="30px" viewBox="0 0 30 30" version="1.1" xmlns="http://www.w3.org/2000/svg" xmlns:xlink="http://www.w3.org/1999/xlink">
    <!-- Generator: Sketch 58 (84663) - https://sketch.com -->
    <title>Shape</title>
    <desc>Created with Sketch.</desc>
    <g id="Site" stroke="none" stroke-width="1" fill="none" fill-rule="evenodd">
        <g id="Main-Page-Copy-2" transform="translate(-1308.000000, -4356.000000)" fill="#005691" fill-rule="nonzero">
            <g id="Servises-icons" transform="translate(0.000000, 4092.000000)">
                <g id="Group-23" transform="translate(1288.000000, 245.000000)">
                    <g id="periodontal-scaler" transform="translate(20.000000, 19.000000)">
                        <g id="Shape-2">
                            <path d="M29.4999792,0 L27.4998958,0 C27.2238843,0 26.999875,0.224003733 26.999875,0.5 L26.999875,4.00006667 L25.4998125,4.00006667 C25.367307,4.00006667 25.2398017,4.05256754 25.1462978,4.14656911 L18.8490354,10.4436741 L17.6194841,10.1601693 C17.0734614,10.0346672 16.5064378,10.1956699 16.1089212,10.5936766 L0.681778407,26.0204337 C-0.227259469,26.9294488 -0.227259469,28.4084735 0.681778407,29.3179886 C1.13629735,29.7724962 1.73382224,30 2.3303471,30 C2.92737197,30 3.52489687,29.7724962 3.97891579,29.3179886 L20.6426101,12.6547109 C20.9366224,12.360706 21.048127,11.9296988 20.9336222,11.5301922 C20.8191175,11.1306855 20.496104,10.8241804 20.0910871,10.7306788 L19.9980833,10.7091785 L25.7068211,5.00008333 L27.4998958,5.00008333 L29.4999792,5.00008333 C29.7759907,5.00008333 30,4.7760796 30,4.500075 L30,0.5 C30,0.224003733 29.7759907,0 29.4999792,0 Z M6.69652902,25.1859198 L5.51947998,22.5963766 L6.70752948,21.4083568 L7.88457852,23.9979 L6.69652902,25.1859198 Z M4.75344806,27.1289521 L3.57639902,24.539409 L4.7639485,23.3518892 L5.94099754,25.9414324 L4.75344806,27.1289521 Z M3.27188633,28.6104768 C2.7528647,29.1294855 1.90782949,29.1299855 1.38830785,28.6104768 C0.86928622,28.0909682 0.86928622,27.2459541 1.38830785,26.7269454 L2.82136756,25.2939216 L3.9984166,27.8834647 L3.27188633,28.6104768 Z M19.9355806,11.9476991 L8.63910996,23.2433874 L7.46206092,20.6538442 L16.8154506,11.3006883 C16.9339556,11.1826864 17.0904621,11.1186853 17.2529689,11.1186853 C17.2999708,11.1186853 17.3469728,11.1241854 17.3939747,11.1351856 L18.8060336,11.461191 C18.8245344,11.4691912 18.8445352,11.4691912 18.863536,11.4746912 L19.8650777,11.7056951 C19.9335806,11.7211954 19.9605817,11.7691962 19.9710821,11.8061968 C19.9830826,11.8431974 19.9850827,11.8976983 19.9355806,11.9476991 Z M28.9999583,4.00006667 L27.9999167,4.00006667 L27.9999167,1.00001667 L28.9999583,1.00001667 L28.9999583,4.00006667 Z" id="Shape"></path>
                        </g>
                    </g>
                </g>
            </g>
        </g>
    </g>
</svg>