<?xml version="1.0" encoding="UTF-8"?>
<svg width="22px" height="31px" viewBox="0 0 22 31" version="1.1" xmlns="http://www.w3.org/2000/svg" xmlns:xlink="http://www.w3.org/1999/xlink">
    <!-- Generator: Sketch 58 (84663) - https://sketch.com -->
    <title>045-dentist tools</title>
    <desc>Created with Sketch.</desc>
    <g id="Site" stroke="none" stroke-width="1" fill="none" fill-rule="evenodd">
        <g id="Main-Page" transform="translate(-1302.000000, -1844.000000)" fill="#005691">
            <g id="4" transform="translate(1259.000000, 1622.000000)">
                <g id="045-dentist-tools" transform="translate(43.000000, 222.000000)">
                    <path d="M21.5000316,31 L17.4999684,31 C17.223942,31 17,30.7764809 17,30.5000341 L17,14.4999659 C17,14.2235191 17.2240474,14 17.4999684,14 L21.5000316,14 C21.776058,14 22,14.2235191 22,14.4999659 L22,30.4999287 C22,30.7764809 21.776058,31 21.5000316,31 L21.5000316,31 Z M18.0000422,29.9999628 L21.0000633,29.9999628 L21.0000633,15.0000372 L18.0000422,15.0000372 L18.0000422,29.9999628 Z" id="Shape" fill-rule="nonzero"></path>
                    <path d="M20.5000175,15 L18.4999824,15 C18.2239483,15 18,14.7764774 18,14.5000264 L18,11.4999736 C18,11.2235226 18.2240537,11 18.4999824,11 L20.5000175,11 C20.7760517,11 21,11.2235226 21,11.4999736 L21,14.5000264 C21.0001054,14.7764774 20.7760517,15 20.5000175,15 Z M18.9999648,13.9999473 L20.0000351,13.9999473 L20.0000351,11.9999473 L18.9999648,11.9999473 L18.9999648,13.9999473 Z" id="Shape" fill-rule="nonzero"></path>
                    <path d="M12.5001265,31 L8.49997891,31 C8.22394669,31 8,30.7764809 8,30.5000341 L8,14.4999659 C8,14.2235191 8.22405213,14 8.49997891,14 L12.5000211,14 C12.7760533,14 13,14.2235191 13,14.4999659 L13,30.4999287 C13.0001054,30.7764809 12.7760533,31 12.5001265,31 L12.5001265,31 Z M8.99995782,29.9999628 L12.0000421,29.9999628 L12.0000421,15.0000372 L8.99995782,15.0000372 L8.99995782,29.9999628 Z" id="Shape" fill-rule="nonzero"></path>
                    <path d="M12.5000176,15 L10.4999824,15 C10.2239483,15 10,14.7764774 10,14.5000264 L10,11.4999736 C10,11.2235226 10.2240537,11 10.4999824,11 L12.5000176,11 C12.7760517,11 13,11.2235226 13,11.4999736 L13,14.5000264 C13,14.7764774 12.7760517,15 12.5000176,15 Z M10.9999649,13.9999473 L12.0000351,13.9999473 L12.0000351,11.9999473 L10.9999649,11.9999473 L10.9999649,13.9999473 Z" id="Shape" fill-rule="nonzero"></path>
                    <path d="M4.50002105,31 L0.499978909,31 C0.22394669,31 0,30.77648 0,30.5000322 L0,13.4999678 C0,13.22352 0.224052126,13 0.499978909,13 L4.50002105,13 C4.77605327,13 5,13.22352 5,13.4999678 L5,30.5000322 C5.0001054,30.77648 4.77605327,31 4.50002105,31 Z M0.999957818,29.999959 L4.00004214,29.999959 L4.00004214,13.9999356 L0.999957818,13.9999356 L0.999957818,29.999959 Z" id="Shape" fill-rule="nonzero"></path>
                    <path d="M3.49994729,13 L1.49994729,13 C1.22393253,13 1,12.7756465 1,12.4981679 L1,9.48696342 C1,9.4091805 1.01802847,9.33192671 1.05250395,9.26260996 L2.05250395,7.25517561 C2.22203479,6.91494146 2.77743806,6.91494146 2.9469689,7.25517561 L3.9469689,9.26260996 C3.98197153,9.33182089 4,9.4091805 4,9.48696342 L4,12.4981679 C3.99989457,12.7756465 3.77585662,13 3.49994729,13 Z M2,11.9963357 L3,11.9963357 L3,9.60538395 L2.50005271,8.60161386 L2.00010543,9.60538395 L2.00010543,11.9963357 L2,11.9963357 Z" id="Shape" fill-rule="nonzero"></path>
                    <path d="M2.5,17 C2.22395614,17 2,16.7019542 2,16.3333333 L2,15.6666667 C2,15.2980458 2.22406158,15 2.5,15 C2.77593842,15 3,15.2980458 3,15.6666667 L3,16.3333333 C3,16.7020948 2.77604386,17 2.5,17 Z" id="Path"></path>
                    <path d="M2.5,20 C2.22395614,20 2,19.7019542 2,19.3333333 L2,18.6666667 C2,18.2979052 2.22406158,18 2.5,18 C2.77593842,18 3,18.2980458 3,18.6666667 L3,19.3333333 C3,19.7019542 2.77604386,20 2.5,20 Z" id="Path"></path>
                    <path d="M2.5,25 C2.22395614,25 2,24.7764774 2,24.5000264 L2,21.4999736 C2,21.2235226 2.22406158,21 2.5,21 C2.77593842,21 3,21.2235226 3,21.4999736 L3,24.5000264 C3,24.7764774 2.77604386,25 2.5,25 Z" id="Path"></path>
                    <path d="M19.6005678,12 C19.2695971,12 19.0010785,11.7633388 19.0010785,11.4706379 L19.0010785,7.2613054 C18.9794604,6.92986805 19.2888131,6.77849417 19.3931106,6.72770131 C20.6113052,6.13102476 20.7977764,5.64508781 20.8001784,5.40842658 C20.8049824,4.98969249 20.2719907,4.48511289 19.300191,3.98756614 C19.0135942,3.84088083 18.9158706,3.51692287 19.081988,3.2644098 C19.2481055,3.01133857 19.6156119,2.92448836 19.9015766,3.07173184 C21.3027026,3.78852512 22.0088914,4.57888432 21.9999155,5.41903169 C21.9915717,6.20090681 21.3866463,6.91301152 20.2006891,7.53927071 L20.2006891,11.4705263 C20.200057,11.7633388 19.931412,12 19.6005678,12 L19.6005678,12 Z" id="Path"></path>
                    <path d="M10.9999473,8 C8.79448318,8 7,6.20551682 7,3.99994728 C7,1.79437774 8.79448318,0 10.9999473,0 C13.2054114,0 15,1.79448318 15,4.00005272 C15,6.20562226 13.2055168,8 10.9999473,8 Z M10.9999473,1.00003954 C9.34548019,1.00003954 7.9999341,2.34558562 7.9999341,4.00005272 C7.9999341,5.65451981 9.34548019,7.0000659 10.9999473,7.0000659 C12.6544144,7.0000659 13.9999605,5.65451981 13.9999605,4.00005272 C13.9999605,2.34558562 12.6545198,1.00003954 10.9999473,1.00003954 Z" id="Shape" fill-rule="nonzero"></path>
                    <path d="M11.5,11 C11.2239561,11 11,10.7764774 11,10.5000264 L11,7.49997364 C11,7.22352259 11.2240616,7 11.5,7 C11.7760438,7 12,7.22352259 12,7.49997364 L12,10.5000264 C12.0001054,10.7764774 11.7760438,11 11.5,11 Z" id="Path"></path>
                    <path d="M2.5,8 C2.22395614,8 2,7.77647741 2,7.50002636 L2,4.49997364 C2,4.22352259 2.22406158,4 2.5,4 C2.77604386,4 3,4.22352259 3,4.49997364 L3,7.50002636 C3,7.77647741 2.77604386,8 2.5,8 L2.5,8 Z" id="Path"></path>
                    <path d="M2.49994728,5 C2.22392088,5 1.99997891,4.77647977 1.99997891,4.50003163 C1.99997891,4.22358349 2.22402632,4.00006326 2.49994728,4.00006326 C3.32697214,4.00006326 3.99995783,3.32707758 3.99995783,2.50005272 C3.99995783,1.67302786 3.32697214,1.00004217 2.49994728,1.00004217 C1.67292242,1.00004217 0.99993674,1.67302786 0.99993674,2.50005272 C0.99993674,2.77650085 0.775889336,3.00002109 0.49996837,3.00002109 C0.223941969,3.00002109 0,2.77650085 0,2.50005272 C0,1.12150222 1.12150222,0 2.49994728,0 C3.87839234,0 5,1.12150222 5,2.50005272 C5,3.87860321 3.87849778,5 2.49994728,5 Z" id="Path"></path>
                    <path d="M13,25 L8,25 L8,20 L13,20 L13,25 Z M8.99993674,23.9999578 L11.9999578,23.9999578 L11.9999578,20.9999367 L8.99993674,20.9999367 L8.99993674,23.9999578 Z" id="Shape" fill-rule="nonzero"></path>
                    <path d="M22,25 L17,25 L17,19 L22,19 L22,25 Z M18.0000422,24.0000703 L21.0000633,24.0000703 L21.0000633,20.0000351 L18.0000422,20.0000351 L18.0000422,24.0000703 Z" id="Shape" fill-rule="nonzero"></path>
                    <path d="M9.5999747,5 C9.26873603,5 9,4.73177006 9,4.4000253 C9,3.07633588 10.0764624,2 11.4000253,2 C11.731264,2 12,2.26822994 12,2.5999747 C12,2.93171946 11.7311374,3.19994939 11.4000253,3.19994939 C10.7381806,3.19994939 10.1999494,3.73818059 10.1999494,4.4000253 C10.2000759,4.73177006 9.93121336,5 9.5999747,5 Z" id="Path"></path>
                </g>
            </g>
        </g>
    </g>
</svg>