<?xml version="1.0" encoding="UTF-8"?>
<svg width="31px" height="30px" viewBox="0 0 31 30" version="1.1" xmlns="http://www.w3.org/2000/svg" xmlns:xlink="http://www.w3.org/1999/xlink">
    <!-- Generator: Sketch 58 (84663) - https://sketch.com -->
    <title>012-tooth-7 2</title>
    <desc>Created with Sketch.</desc>
    <g id="Site" stroke="none" stroke-width="1" fill="none" fill-rule="evenodd">
        <g id="Main-Page" transform="translate(-730.000000, -1846.000000)" fill="#005691">
            <g id="2" transform="translate(690.000000, 1622.000000)">
                <g id="012-tooth-7-2" transform="translate(40.000000, 224.000000)">
                    <g id="012-tooth-7">
                        <path d="M21.8631872,18.6718064 C21.8063938,18.4354878 21.5659864,18.2893542 21.3264098,18.3452443 C21.0867738,18.4012515 20.9384701,18.6382138 20.9952041,18.874591 C21.942235,22.8182673 20.7457169,27.1444544 19.5566763,28.6272102 C19.3089694,28.9360396 19.057049,29.1203892 18.8826928,29.1203892 C18.8809124,29.1203892 18.6983072,29.1126055 18.4209871,28.4371253 C18.1888286,27.871611 17.9739989,27.0443789 17.7466475,26.1685136 C16.9391372,23.0588581 15.8333579,18.8000318 12.2230329,18.8000318 C8.61270779,18.8000318 7.50686918,23.0588581 6.69941828,26.1685136 C6.47206679,27.0443203 6.25717779,27.871611 6.02501934,28.4371253 C5.74769918,29.1126055 5.56515332,29.1203892 5.56337296,29.1203892 C5.43370368,29.1203892 5.26112782,29.0200796 5.07739506,28.8378369 C4.0979024,27.8663439 3.09585856,24.9619895 3.11443361,21.7833931 C3.11585789,21.5405199 2.91734817,21.3424173 2.67100621,21.3410712 C2.67011604,21.3410712 2.6692852,21.3410712 2.66839502,21.3410712 C2.42329931,21.3410712 2.22389942,21.5363647 2.22247513,21.7783601 C2.20437484,24.8818706 3.15983269,28.1834251 4.44489383,29.4580708 C4.8074337,29.8176402 5.18374167,30 5.56337296,30 C6.62529612,30 7.01887354,28.4844124 7.56348451,26.3867483 C7.95498485,24.8790029 8.39864963,23.1701116 9.13862502,21.8367667 C9.94411753,20.3852626 10.9530454,19.6796426 12.2230922,19.6796426 C13.493139,19.6796426 14.5020075,20.3852626 15.3075594,21.8367667 C16.0474161,23.1699946 16.4911996,24.8790029 16.8826999,26.3867483 C17.4273702,28.4844124 17.8208883,30 18.8828115,30 C19.3540718,30 19.8161929,29.7217199 20.2563563,29.1727679 C20.9905752,28.2572235 21.6282988,26.6085531 21.9624123,24.7626578 C22.3402039,22.6747672 22.3050122,20.5115567 21.8631872,18.6718064 Z" id="Path"></path>
                        <path d="M22.3455531,1.88436109 C20.9705715,0.669176514 19.0489246,0 16.9344546,0 C15.216918,0 13.5297158,0.762772917 12.2363312,2.10891112 C10.9504715,0.780492906 9.21706228,0 7.51004866,0 C5.39557864,0 3.47387295,0.669176514 2.0990089,1.88436109 C0.745425929,3.08066372 0,4.71653827 0,6.49062874 C0,10.6648772 1.51201537,12.3607674 2.61610404,13.5991332 C3.53042656,14.6245686 3.98938083,15.1393779 3.33813253,16.5552341 C2.93185189,17.4385029 2.64232328,18.4284403 2.47736546,19.4976238 C2.44062325,19.7360012 2.60628653,19.958634 2.84755056,19.9950035 C2.87012498,19.9983732 2.89246424,20 2.91462714,20 C3.12920164,20 3.31743932,19.8452261 3.35077185,19.6291584 C3.50338429,18.6393953 3.76975061,17.7266706 4.142346,16.9165476 C5.03027291,14.9861145 4.21865222,14.0758299 3.2788747,13.0218101 C2.21164581,11.8248684 0.883400271,10.3351111 0.883400271,6.49062874 C0.883400271,3.23567005 3.6702821,0.873159736 7.50993108,0.873159736 C9.00877805,0.873159736 10.5396054,1.58254029 11.6672679,2.78558232 C11.6453402,2.81666492 11.6231773,2.84803802 11.6015434,2.87877203 C10.8481812,3.94952417 10.3505447,4.65692939 8.45235404,4.65692939 C8.20838577,4.65692939 8.01056572,4.85243025 8.01056572,5.0935383 C8.01056572,5.33464636 8.20838577,5.53014722 8.45235404,5.53014722 C10.8123208,5.53014722 11.514244,4.53242468 12.3269816,3.37725567 C12.3928236,3.28365926 12.4606057,3.18779703 12.5300925,3.09083092 C12.546553,3.07642254 12.5623081,3.06114268 12.5765935,3.04417797 C13.7375297,1.66451703 15.3257925,0.873159736 16.9343958,0.873159736 C20.7741036,0.873159736 23.5609266,3.23561195 23.5609266,6.49062874 C23.5609266,7.81898886 23.403376,8.94580588 23.0792803,9.93551086 C23.0041499,10.1649411 23.1314837,10.4110457 23.3635768,10.4853534 C23.5959052,10.5597193 23.8447528,10.4337621 23.9199421,10.2043899 C24.2729024,9.12649167 24.4444444,7.91177188 24.4444444,6.49068684 C24.4444444,4.71653827 23.6991361,3.08066372 22.3455531,1.88436109 Z" id="Path"></path>
                        <path d="M30.0403029,23.063622 L25.2819635,18.3052717 C24.8625064,17.8857543 24.2041736,17.7765859 23.6721053,18.0412257 L21.8111427,16.1802588 C22.7459278,15.1003293 23.312189,13.6931322 23.312189,12.1561086 C23.312189,8.76162047 20.5505749,6 17.1560945,6 C13.7616142,6 11,8.76162047 11,12.1561086 C11,15.5505967 13.7616142,18.3122172 17.1560945,18.3122172 C18.693174,18.3122172 20.1003678,17.7459547 21.1802355,16.8111674 L23.0411981,18.6721343 C22.776559,19.2042038 22.8857271,19.8625381 23.3051842,20.2819369 L28.0635236,25.0402871 C28.6022998,25.579124 29.5014079,25.5791833 30.0402435,25.0403465 C30.5791385,24.501569 30.5791979,23.6023995 30.0403029,23.063622 Z M17.1562132,17.4200525 C14.2537313,17.4200525 11.8923407,15.0586565 11.8923407,12.156168 C11.8923407,9.25367937 14.2537313,6.89228343 17.1562132,6.89228343 C20.0586952,6.89228343 22.4200857,9.25367937 22.4200857,12.156168 C22.4200857,15.0586565 20.0587545,17.4200525 17.1562132,17.4200525 Z M29.409455,24.4094972 C29.2146265,24.6043261 28.889378,24.6042668 28.6944902,24.4094972 L23.9361508,19.6511469 C23.7410848,19.4561399 23.7416784,19.1313062 23.9361508,18.936121 C24.1306825,18.7409953 24.4564652,18.7415295 24.6511157,18.936121 L29.409455,23.6944713 C29.6031557,23.8906063 29.6052334,24.213659 29.409455,24.4094972 Z" id="Shape" fill-rule="nonzero"></path>
                        <path d="M17.1666667,8 C14.8691839,8 13,9.86918388 13,12.1666667 C13,14.4641495 14.8691839,16.3333333 17.1666667,16.3333333 C19.4641495,16.3333333 21.3333333,14.4641495 21.3333333,12.1666667 C21.3333333,9.86918388 19.4642076,8 17.1666667,8 Z M17.1666667,15.4591709 C15.3511655,15.4591709 13.8741043,13.9821096 13.8741043,12.1666085 C13.8741043,10.3511074 15.3511655,8.87404616 17.1666667,8.87404616 C18.9821678,8.87404616 20.459229,10.3511074 20.459229,12.1666085 C20.459229,13.9821678 18.9821678,15.4591709 17.1666667,15.4591709 Z" id="Shape" fill-rule="nonzero"></path>
                    </g>
                </g>
            </g>
        </g>
    </g>
</svg>