<?xml version="1.0" encoding="UTF-8"?>
<svg width="33px" height="40px" viewBox="0 0 33 40" version="1.1" xmlns="http://www.w3.org/2000/svg" xmlns:xlink="http://www.w3.org/1999/xlink">
    <!-- Generator: Sketch 58 (84663) - https://sketch.com -->
    <title>tooth 2</title>
    <desc>Created with Sketch.</desc>
    <g id="Site" stroke="none" stroke-width="1" fill="none" fill-rule="evenodd">
        <g id="Main-Page-Copy-2" transform="translate(-424.000000, -4352.000000)" fill="#005691">
            <g id="Servises-icons" transform="translate(0.000000, 4092.000000)">
                <g id="Group-20" transform="translate(404.000000, 245.000000)">
                    <g id="tooth-2" transform="translate(20.000000, 15.000000)">
                        <g id="tooth">
                            <path d="M31.7839504,4.6665 L29.454739,4.6665 C24.8191229,4.65866667 20.3168704,3.06691667 16.653134,0.1405 C16.419485,-0.04675 16.0922631,-0.04675 15.8586141,0.1405 C12.1948777,3.06691667 7.6926252,4.65866667 3.05700916,4.6665 L0.727797704,4.6665 C0.370490197,4.6665 0.08078664,4.965 0.08078664,5.33316667 L0.08078664,12.4665 C0.0727878579,23.9260833 6.16505069,34.467 15.9472535,39.9191667 C16.139737,40.0268333 16.3720111,40.0268333 16.5644946,39.9191667 C26.3457269,34.4675833 32.4377471,23.92825 32.4309593,12.4698333 L32.4309593,5.33316667 C32.4309593,4.96491667 32.1412579,4.6665 31.7839504,4.6665 Z M31.1369544,12.4665 C31.1443069,23.3069167 25.4481718,33.2996667 16.2558741,38.5725 C7.06454687,33.30025 1.36857348,23.3090833 1.37479578,12.4698333 L1.37479578,5.99983333 L3.05700916,5.99983333 C7.8096519,5.99166667 12.4349968,4.41608333 16.2558741,1.50383333 C20.0767514,4.41608333 24.7020962,5.99166667 29.454739,5.99983333 L31.1369544,5.99983333 L31.1369544,12.4665 Z" id="Shape" fill-rule="nonzero"></path>
                            <path d="M21.8816476,6.66975 C21.0689307,6.67016667 20.2647058,6.84033333 19.517498,7.16975 C17.4339051,8.08508333 15.0780856,8.08508333 12.9944119,7.16975 C9.93926288,5.82258333 6.40266261,7.28241667 5.09515006,10.4304167 C4.77536873,11.2003333 4.61030205,12.029 4.60989767,12.8664167 C4.61208131,14.5933333 5.00222422,16.29625 5.74991728,17.84175 L7.22573153,20.8830833 L8.86135558,29.8664167 C9.11926722,31.2846667 10.4440871,32.219 11.8205864,31.95325 C12.9050446,31.7439167 13.733613,30.8359167 13.8698072,29.70775 L14.7160874,22.7330833 C14.8265632,21.85675 15.605555,21.2386667 16.4560407,21.3525833 C17.1549659,21.4461667 17.7050803,22.013 17.7958225,22.7330833 L18.6421027,29.70975 C18.8149334,31.1416667 20.0816039,32.1580833 21.4712858,31.9799167 C22.566177,31.8395833 23.4473953,30.9858333 23.6505543,29.8684167 L25.2861783,20.8804167 L26.7619926,17.8390833 C27.5092813,16.2943333 27.8995051,14.5924167 27.9020122,12.8664167 C27.9001521,9.44233333 25.2048177,6.66815087 21.8816476,6.66975 Z M25.604423,17.2431667 L25.604423,17.2451667 L24.0878476,20.3705 C24.0612396,20.4256667 24.0422339,20.4845 24.0315583,20.5451667 L22.3791122,29.6251667 C22.2533509,30.31975 21.604892,30.77775 20.9308764,30.6481667 C20.3989589,30.5459167 19.9926409,30.1005 19.9263231,29.5471667 L19.0793959,22.5685 C18.8786632,20.96175 17.4518594,19.8268333 15.89242,20.0336667 C14.6084422,20.2039167 13.5975806,21.2455 13.4323522,22.5685 L12.585425,29.5451667 C12.5014764,30.2464167 11.8816473,30.74475 11.2011617,30.65825 C10.6641491,30.59 10.2319509,30.17125 10.132636,29.6231667 L8.48018983,20.5431667 C8.46951427,20.4825 8.45050856,20.4236667 8.42390055,20.3685 L6.90732509,17.2431667 C6.24940373,15.8836667 5.90592592,14.3856667 5.90382316,12.8665 C5.90430841,10.17875 8.01928094,8.00025 10.6277551,8.00066667 C11.2662664,8.00075 11.898065,8.13433333 12.4851395,8.39316667 C14.8940132,9.45183333 17.6177349,9.45183333 20.0266086,8.39316667 C22.4247259,7.33575 25.2007739,8.48166667 26.2270018,10.9526667 C26.4782008,11.5575 26.607925,12.2085833 26.607925,12.8665 C26.6058222,14.3855833 26.2623444,15.8836667 25.604423,17.2431667 Z" id="Shape" fill-rule="nonzero"></path>
                            <path d="M9.42675548,9.44516667 C8.03278713,10.4003333 7.19596939,12.0115833 7.19782643,13.7365 L7.19782643,14.6665 L8.49183588,14.6665 L8.49183588,13.7365 C8.490461,12.4574167 9.11117968,11.2626667 10.144929,10.5545 L9.42675548,9.44516667 Z" id="Path"></path>
                            <rect id="Rectangle" x="15.6088709" y="4.6665" width="1.29400636" height="1.33333333"></rect>
                            <rect id="Rectangle" x="28.5489345" y="7.33316667" width="1.29400636" height="1.33333333"></rect>
                            <rect id="Rectangle" x="2.66880725" y="7.33316667" width="1.29400636" height="1.33333333"></rect>
                            <rect id="Rectangle" x="25.9609218" y="24.6665" width="1.29400636" height="1.33333333"></rect>
                            <rect id="Rectangle" x="3.31581043" y="16.6665" width="1.29400636" height="1.33333333"></rect>
                            <rect id="Rectangle" x="15.6088709" y="34.6665" width="1.29400636" height="1.33333333"></rect>
                            <rect id="Rectangle" x="27.9019313" y="16.6665" width="1.29400636" height="1.33333333"></rect>
                            <rect id="Rectangle" x="5.25681998" y="24.6665" width="1.29400636" height="1.33333333"></rect>
                        </g>
                    </g>
                </g>
            </g>
        </g>
    </g>
</svg>