<?xml version="1.0" encoding="UTF-8"?>
<svg width="28px" height="34px" viewBox="0 0 28 34" version="1.1" xmlns="http://www.w3.org/2000/svg" xmlns:xlink="http://www.w3.org/1999/xlink">
    <!-- Generator: Sketch 58 (84663) - https://sketch.com -->
    <title>teddy-bear (1)</title>
    <desc>Created with Sketch.</desc>
    <g id="Site" stroke="none" stroke-width="1" fill="none" fill-rule="evenodd">
        <g id="Main-Page-Copy-2" transform="translate(-1017.000000, -4355.000000)" fill="#005691">
            <g id="Servises-icons" transform="translate(0.000000, 4092.000000)">
                <g id="Group-22" transform="translate(996.000000, 245.000000)">
                    <g id="teddy-bear-(1)-2" transform="translate(21.000000, 18.000000)">
                        <g id="teddy-bear-(1)">
                            <path d="M27.251058,24.934418 C26.7082128,23.9973594 25.9071777,23.3878164 24.8702186,23.1229219 C24.6224951,23.0596367 24.3728382,23.0199258 24.1251147,23.0041875 C24.1571134,22.6492461 24.1737794,22.2916484 24.1737794,21.9346484 C24.1737794,21.4814922 24.1477138,21.0278047 24.0960492,20.5784336 C25.9391098,20.3272187 27.3608537,18.8012031 27.3608537,16.9619492 C27.3608537,14.9479141 25.655521,13.3092734 23.5594037,13.3092734 C23.3538118,13.3092734 23.1508864,13.3257422 22.9516276,13.3563555 C23.382544,12.3224766 23.6198013,11.1953633 23.6198013,10.0162539 C23.6198013,9.24966016 23.5201385,8.49316016 23.3228796,7.75890625 C24.8351533,7.12260156 25.8415136,5.68092187 25.8415136,4.05025 C25.8415803,1.81694141 23.9491883,0 21.6231467,0 C20.205136,0 18.8927877,0.687835937 18.1177516,1.79628906 C16.882867,1.25255469 15.5267205,0.967472656 14.1583745,0.967472656 C12.7900284,0.967472656 11.4338819,1.25255469 10.1989973,1.79628906 C9.42382788,0.687835937 8.11141298,0 6.69340224,0 C4.36729399,0 2.4748353,1.81700781 2.4748353,4.05038281 C2.4748353,5.68112109 3.48132894,7.12280078 4.99360262,7.75910547 C4.79634373,8.49355859 4.69661433,9.250125 4.69661433,10.0163867 C4.69661433,11.1954961 4.93393831,12.322543 5.36478798,13.3564883 C5.16552917,13.325875 4.96267051,13.3094062 4.75707862,13.3094062 C2.66089463,13.3094062 0.955561895,14.9479805 0.955561895,16.962082 C0.955561895,18.8012031 2.37750581,20.3271523 4.22036645,20.5785664 C4.16870182,21.0282031 4.14256952,21.4820234 4.14256952,21.9347812 C4.14256952,22.3016094 4.16023549,22.6689023 4.19403416,23.0335391 C4.16830184,23.0330078 4.14263619,23.0322109 4.11677054,23.0322109 C3.79051674,23.0322109 3.45852984,23.0747773 3.12987613,23.1586484 C2.09291703,23.423543 1.29194863,24.0329531 0.749036708,24.9700781 C-0.190592897,26.5921172 -0.141461501,28.9893164 0.323986806,30.6456211 C0.879231572,32.6206758 2.75449094,34 4.88454026,34 C4.9738034,34 5.06319988,33.9970781 5.15239636,33.9921641 C5.15626287,33.9920977 5.16006272,33.9920977 5.16392924,33.9918984 C5.16979567,33.9916328 5.17566211,33.9911016 5.18152854,33.9907695 C5.1884616,33.9903711 5.195328,33.9899062 5.20219439,33.9894414 C6.94832552,33.8948125 8.48553155,32.8681055 9.21256954,31.3864492 C10.7153103,32.3146094 12.4084435,32.8012344 14.1581078,32.8012344 C15.8284419,32.8012344 17.4555777,32.3531914 18.9103204,31.5009336 C18.9337861,31.5446289 18.9568519,31.5885234 18.9818509,31.6316875 C19.6107594,32.7172305 20.6459186,33.4910625 21.8965359,33.810543 C22.2955868,33.9124766 22.705704,33.9642734 23.1153545,33.9642734 C25.2454038,33.9642734 27.1206632,32.5848828 27.675708,30.6098945 C28.1415563,28.9536562 28.190621,26.5563906 27.251058,24.934418 Z M3.80851603,4.05038281 C3.80851603,2.54953516 5.10266499,1.32845703 6.69340224,1.32845703 C7.83135736,1.32845703 8.86631653,1.96257031 9.33003158,2.94398828 C9.40749519,3.10794531 9.54888961,3.2331875 9.72128281,3.29082812 C9.89374268,3.34840234 10.0822686,3.33332812 10.2433956,3.249125 C11.4352819,2.62550391 12.7890285,2.29592969 14.1581745,2.29592969 C15.5273871,2.29592969 16.8810671,2.62550391 18.0729534,3.249125 C18.2340137,3.33339453 18.4226729,3.34846875 18.5950661,3.29082812 C18.767526,3.2331875 18.9088538,3.10787891 18.9863174,2.94398828 C19.4500991,1.96257031 20.4849916,1.32845703 21.6230134,1.32845703 C23.2137506,1.32845703 24.5078996,2.54946875 24.5078996,4.05038281 C24.5078996,5.11228516 23.8594585,6.05651562 22.8768972,6.50263281 C22.7185035,6.14330859 22.536244,5.79341406 22.3313188,5.45733203 C22.1400596,5.14382812 21.7300758,5.04415234 21.4152882,5.23447266 C21.1005673,5.42492578 21.0003713,5.83345703 21.1915637,6.14696094 C21.4634863,6.59287891 21.6891441,7.06675391 21.8622039,7.55557031 C21.8664038,7.56752344 21.8713369,7.57894531 21.8761367,7.5905 C22.1477927,8.37044141 22.2861205,9.18624219 22.2861205,10.0163867 C22.2861205,14.0601289 18.9959837,17.3874141 14.8248815,17.7107461 L14.8248815,12.7718477 C15.7901768,12.4425391 16.4720165,11.4436562 16.4720165,10.5617812 C16.4720165,10.0782109 16.2465588,8.95342187 14.1581078,8.95342187 C12.0696568,8.95342187 11.8441991,10.0782109 11.8441991,10.5617812 C11.8441991,11.4436562 12.5259722,12.4425391 13.4913341,12.7718477 L13.4913341,17.7107461 C9.32029863,17.3874805 6.03009507,14.0601953 6.03009507,10.0163867 C6.03009507,9.17408984 6.17202281,8.34587109 6.45201176,7.55470703 C6.51474262,7.37740234 6.49914324,7.18203516 6.40901346,7.01681641 C6.31895034,6.85159766 6.16282317,6.73226562 5.97936374,6.68817187 C4.70121415,6.38124219 3.80851603,5.29649609 3.80851603,4.05038281 Z M14.1583078,22.8489297 C13.7900557,22.8489297 13.4915341,23.1462969 13.4915341,23.513125 L13.4915341,25.5263633 C11.2326232,25.2029648 9.49075857,23.2632383 9.49075857,20.9250078 C9.49075857,19.9785859 9.78208041,19.0581953 10.317326,18.2852266 C11.4917463,18.7861953 12.7915617,19.0652344 14.1583078,19.0652344 C15.5250539,19.0652344 16.8248693,18.7861953 17.9993563,18.2852266 C18.5346018,19.0582617 18.8259904,19.9785859 18.8259904,20.9250078 C18.8259904,23.2631719 17.0840591,25.2029648 14.8252148,25.5263633 L14.8252148,23.513125 C14.8250815,23.1462969 14.5265599,22.8489297 14.1583078,22.8489297 Z M13.1780131,10.5617812 C13.1780131,10.4970352 13.1780131,10.470207 13.2882088,10.4161523 C13.3904048,10.3660156 13.6393949,10.2819453 14.1583078,10.2819453 C14.6772207,10.2819453 14.9262108,10.366082 15.0284068,10.4161523 C15.1386025,10.470207 15.1386025,10.4970352 15.1386025,10.5617812 C15.1386025,10.9361797 14.6803539,11.5556836 14.1582411,11.5556836 C13.6361284,11.5556172 13.1780131,10.9361797 13.1780131,10.5617812 Z M7.8631561,31.0034844 C7.41504044,31.776918 6.67246973,32.3295508 5.77223857,32.5595156 C5.55431384,32.6151641 5.3321226,32.6502266 5.10919806,32.6643711 C5.10859808,32.6643711 5.10799811,32.6644375 5.1074648,32.6645039 C5.03326772,32.6691523 4.95900399,32.6714766 4.88480691,32.6714766 C3.3503341,32.6714766 2.00312058,31.6911211 1.60846948,30.2873594 C1.23088437,28.9438945 1.1624204,26.9147188 1.90432447,25.6339414 C2.26617687,25.0093906 2.77542345,24.6205156 3.46132973,24.4453359 C3.6817877,24.3890234 3.902379,24.3604688 4.11690387,24.3604688 C4.34242831,24.3604688 4.56128634,24.3916133 4.77281133,24.4491211 C4.78281093,24.4521758 4.79274388,24.4552305 4.80294347,24.4578203 C6.52067572,24.9468359 7.75376042,27.1754961 8.16594416,28.6422773 C8.39026864,29.4406133 8.28273955,30.2791914 7.8631561,31.0034844 Z M18.5500679,28.2484219 C18.3666751,28.9009297 18.3381429,29.5716992 18.4581382,30.2198242 C17.1519231,31.0400742 15.674848,31.4727773 14.1583745,31.4727773 C12.5274388,31.4727773 10.9512343,30.9771211 9.5770885,30.036543 C9.65375214,29.4571484 9.61308708,28.8634766 9.4502935,28.2842148 C8.96491264,26.5571875 7.59829988,24.1414609 5.5679133,23.3193516 C5.50738236,22.8623437 5.47645024,22.3982969 5.47645024,21.9346484 C5.47645024,21.3060469 5.53298135,20.6754531 5.64457694,20.0604648 C5.6811755,19.8586562 5.62224449,19.6514687 5.48478325,19.4988008 C5.347322,19.3461328 5.14672991,19.2651836 4.94160467,19.2797266 C4.88047375,19.284043 4.81854286,19.286168 4.75741194,19.286168 C3.39659895,19.286168 2.28950928,18.243457 2.28950928,16.9618828 C2.28950928,15.6803086 3.39659895,14.6376641 4.75741194,14.6376641 C5.40838626,14.6376641 6.02042879,14.8740703 6.48454381,15.3030547 C7.19624907,16.245293 8.09268038,17.0517305 9.12270642,17.673625 C8.49599781,18.6370469 8.15727783,19.7662187 8.15727783,20.9250078 C8.15727783,24.2212812 10.8494383,26.9029648 14.1584411,26.9029648 C17.4674439,26.9029648 20.1596044,24.2212148 20.1596044,20.9250078 C20.1596044,19.7662187 19.8208844,18.6371133 19.1941758,17.673625 C20.2242685,17.0517969 21.1206998,16.2453594 21.8323384,15.3030547 C22.2965201,14.8739375 22.9085627,14.6376641 23.559537,14.6376641 C24.9202833,14.6376641 26.027373,15.6803086 26.027373,16.9618828 C26.027373,18.243457 24.9202833,19.286168 23.559537,19.286168 C23.4984727,19.286168 23.4364085,19.2839766 23.3751443,19.2797266 C23.1699523,19.2651836 22.9693603,19.3461328 22.831899,19.4988008 C22.6945711,19.6514687 22.6355068,19.8587227 22.6721053,20.0605312 C22.7836343,20.6747891 22.840232,21.3053164 22.840232,21.934582 C22.840232,22.3459023 22.8159663,22.7578867 22.7683682,23.1642266 C20.5527889,23.8417695 19.0618477,26.4278945 18.5500679,28.2484219 Z M26.3917586,30.2517656 C25.9973075,31.6555273 24.650094,32.6359492 23.1156212,32.6359492 C22.8176329,32.6359492 22.5190447,32.5982969 22.2280562,32.5239219 C21.3277583,32.293957 20.585121,31.7413242 20.1371386,30.9678906 C19.7175552,30.2435313 19.6099594,29.4049531 19.8342839,28.6068164 C20.2684001,27.0624063 21.6124138,24.6734414 23.474007,24.3598047 C23.4812734,24.3586094 23.4885398,24.3573477 23.4957395,24.3559531 C23.6226012,24.3356992 23.7518627,24.3250742 23.8833909,24.3250742 C24.0979824,24.3250742 24.3185737,24.3536289 24.538965,24.4099414 C25.2248046,24.5851875 25.7341179,24.9739297 26.0960369,25.5985469 C26.8378743,26.8790586 26.7694104,28.9083008 26.3917586,30.2517656 Z" id="Shape" fill-rule="nonzero"></path>
                            <path d="M18.5294486,7.28571429 C17.8491396,7.28571429 17.2941176,7.83122509 17.2941176,8.49996215 C17.2941176,9.16877491 17.8490659,9.71428571 18.5294486,9.71428571 C19.2098314,9.71428571 19.7647059,9.16877491 19.7647059,8.49996215 C19.7647059,7.83122509 19.2098314,7.28571429 18.5294486,7.28571429 Z" id="Path"></path>
                            <path d="M10.2941545,7.28571429 C9.61377176,7.28571429 9.05882353,7.83122509 9.05882353,8.49996215 C9.05882353,9.16877491 9.61369806,9.71428571 10.2941545,9.71428571 C10.9744635,9.71428571 11.5294118,9.16877491 11.5294118,8.49996215 C11.5294118,7.83122509 10.9744635,7.28571429 10.2941545,7.28571429 Z" id="Path"></path>
                            <path d="M21.1730705,3.48391107 L21.1540143,3.46534303 C20.8295669,3.15635784 20.3104674,3.16302947 19.995998,3.48190155 C19.6815285,3.80069324 19.6883168,4.30846104 20.0127642,4.61752661 C20.0133367,4.6180089 20.0171807,4.62186719 20.017835,4.62242986 C20.1770735,4.77901237 20.3853839,4.85714286 20.5938579,4.85714286 C20.8029862,4.85714286 21.0121963,4.77853008 21.1722527,4.62170643 C21.4917111,4.30854142 21.4912204,3.79852295 21.1730705,3.48391107 Z" id="Path"></path>
                            <path d="M14,21.047619 C13.5451733,21.047619 13.1764706,21.4058253 13.1764706,21.8477037 L13.1764706,21.866582 C13.1764706,22.3084604 13.5451733,22.6666667 14,22.6666667 C14.4548267,22.6666667 14.8235294,22.3084604 14.8235294,21.866582 L14.8235294,21.8477037 C14.8235294,21.4058253 14.4548267,21.047619 14,21.047619 Z" id="Path"></path>
                        </g>
                    </g>
                </g>
            </g>
        </g>
    </g>
</svg>