<?xml version="1.0" encoding="UTF-8"?>
<svg width="33px" height="33px" viewBox="0 0 33 33" version="1.1" xmlns="http://www.w3.org/2000/svg" xmlns:xlink="http://www.w3.org/1999/xlink">
    <!-- Generator: Sketch 58 (84663) - https://sketch.com -->
    <title>dental</title>
    <desc>Created with Sketch.</desc>
    <g id="Site" stroke="none" stroke-width="1" fill="none" fill-rule="evenodd">
        <g id="Main-Page-Copy-2" transform="translate(-1304.000000, -4153.000000)" fill="#005691">
            <g id="Servises-icons" transform="translate(0.000000, 4092.000000)">
                <g id="Group-19" transform="translate(1288.000000, 43.000000)">
                    <g id="Group-10-Copy-3">
                        <g id="dental-2" transform="translate(16.000000, 18.000000)">
                            <g id="dental">
                                <path d="M32.933861,2.2209743 L27.6219897,1.15860005 L27.6219897,0 L19.1229958,0 C17.365254,0 15.935873,1.42938099 15.935873,3.18712274 C15.935873,4.94486448 17.365254,6.37424547 19.1229958,6.37424547 L19.1229958,9.87157319 C19.1229958,10.0495001 19.0890185,10.2237959 19.0257325,10.3864201 C18.3448896,9.97454255 17.4132372,10.0209696 16.7995709,10.5563066 L1.01802218,24.3656156 C0.371156644,24.9312987 0.000259368712,25.7483102 0.000259368712,26.6075987 C0.000259368712,27.403342 0.309945628,28.1513613 0.873035119,28.7144508 L4.21992898,32.0613446 C4.78301841,32.6244341 5.53103777,32.9341203 6.32678098,32.9341203 C7.18606951,32.9341203 8.00308099,32.5634824 8.56876413,31.9163576 L22.3780731,16.1348089 C22.6766065,15.791664 22.8413056,15.3528122 22.8413056,14.8991763 C22.8413056,14.427644 22.66286,13.9861984 22.3472082,13.64046 L22.7987692,13.0986387 C23.168629,12.6538214 23.3724928,12.09151 23.3724928,11.5133772 L23.3724928,6.37424547 L27.6219897,6.37424547 L27.6219897,5.21616419 L32.933861,4.15378994 L32.933861,2.2209743 Z M16.9982473,3.18712274 C16.9982473,2.01529486 17.951168,1.06237425 19.1229958,1.06237425 L24.434867,1.06237425 L24.434867,5.31187123 L19.1229958,5.31187123 C17.951168,5.31187123 16.9982473,4.35895061 16.9982473,3.18712274 Z M21.5984108,12.8792128 L19.8411877,11.1219897 C20.0626886,10.7448677 20.18537,10.3156124 20.18537,9.87157319 L20.18537,8.49899396 L22.3101185,8.49899396 L22.3101185,11.5128584 C22.3101185,11.8427754 22.1939213,12.164652 21.9822765,12.4185739 L21.5984108,12.8792128 Z M2.44169709,24.5313522 L4.19036092,23.0013361 L4.71662002,23.5278546 C5.29293733,24.1041719 6.09075549,24.4346076 6.90569195,24.4346076 C7.72062847,24.4346076 8.51844663,24.1041719 9.09476388,23.5278546 L13.9667458,18.6558727 C14.5430631,18.0795554 14.8734988,17.2817373 14.8734988,16.4668008 C14.8734988,15.6944008 14.573928,14.9396378 14.0523375,14.3723984 L16.0889006,12.5902761 L20.343585,16.8449604 L8.4025088,30.4921639 L2.44169709,24.5313522 Z M13.2511475,15.0729533 C13.6054452,15.4480005 13.8111245,15.9503977 13.8111245,16.4668008 C13.8111245,17.0021378 13.5942923,17.5260626 13.215614,17.9047409 L8.34363209,22.7767228 C7.96495377,23.1554012 7.44102897,23.3722334 6.90569195,23.3722334 C6.37035493,23.3722334 5.84643013,23.1554012 5.46775181,22.7767228 L4.9912915,22.3002625 L13.2511475,15.0729533 Z M4.970542,31.3096941 L1.62364814,27.9628003 C1.26182877,27.6009809 1.0626336,27.1198519 1.0626336,26.6075987 C1.0626336,26.08938 1.27894714,25.5994325 1.64854754,25.2404663 L7.69391348,31.2858322 C7.33442848,31.6549139 6.84525905,31.8712274 6.32626228,31.8712274 C5.81400905,31.8712274 5.33288008,31.6720322 4.970542,31.3096941 L4.970542,31.3096941 Z M21.5776613,15.4352915 L21.044918,16.0440298 L16.8898312,11.8889431 L17.4985695,11.3561997 C17.8121463,11.0825657 18.3171372,11.1002028 18.6099645,11.3930301 L21.5410903,14.3238965 C21.6943772,14.4774427 21.7789314,14.6820847 21.7789314,14.8991763 C21.7789314,15.0962965 21.7073456,15.2864138 21.5776613,15.4352915 L21.5776613,15.4352915 Z M22.3101185,7.43661972 L20.18537,7.43661972 L20.18537,6.37424547 L22.3101185,6.37424547 L22.3101185,7.43661972 Z M26.5596155,5.31187123 L25.4972412,5.31187123 L25.4972412,1.06237425 L26.5596155,1.06237425 L26.5596155,5.31187123 Z M31.8714867,3.28334855 L27.6219897,4.13304045 L27.6219897,2.2417238 L31.8714867,3.0914157 L31.8714867,3.28334855 Z" id="Shape" fill-rule="nonzero"></path>
                                <polygon id="Path" points="9.49937907 26.7336519 10.1988965 25.9342776 10.9980115 26.6335356 10.2982347 27.43291"></polygon>
                                <polygon id="Path" points="8.10060362 28.33266 8.80038037 27.5332857 9.59949543 28.2325437 8.89971861 29.0319181"></polygon>
                                <polygon id="Path" points="10.8984139 25.1351625 11.5981907 24.3355288 12.3973057 25.0350462 11.6975289 25.8344206"></polygon>
                            </g>
                        </g>
                    </g>
                </g>
            </g>
        </g>
    </g>
</svg>