<?xml version="1.0" encoding="UTF-8"?>
<svg width="40px" height="30px" viewBox="0 0 40 30" version="1.1" xmlns="http://www.w3.org/2000/svg" xmlns:xlink="http://www.w3.org/1999/xlink">
    <!-- Generator: Sketch 58 (84663) - https://sketch.com -->
    <title>iconfinder_twin_bed_1642856</title>
    <desc>Created with Sketch.</desc>
    <g id="Site" stroke="none" stroke-width="1" fill="none" fill-rule="evenodd" stroke-linecap="round" stroke-linejoin="round">
        <g id="Main-Page-Copy-2" transform="translate(-787.000000, -4864.000000)" stroke-width="2">
            <g id="Tourism-dentar-paralax" transform="translate(-1.000000, 4530.000000)">
                <g id="Group-12" transform="translate(404.000000, 131.000000)">
                    <g id="iconfinder_twin_bed_1642856-2" transform="translate(385.000000, 204.000000)">
                        <g id="iconfinder_twin_bed_1642856">
                            <path d="M32.5591887,11.7530864 L5.68673585,11.7530864 C2.69459434,11.7530864 0,13.8736543 0,16.7588642 L0,24.2817037 C0,24.6279012 0.559962264,25.0617284 0.918990566,25.0617284 L37.326934,25.0617284 C37.6861415,25.0617284 37.8207547,24.6279012 37.8207547,24.2817037 L37.8207547,16.7588642 C37.8207547,13.8736543 35.5513302,11.7530864 32.5591887,11.7530864 Z" id="Path" stroke="#F9F7EF"></path>
                            <path d="M37.8207547,18.6021975 C37.8207547,18.256 37.5296604,17.9753086 37.1706321,17.9753086 L0.650122642,17.9753086 C0.29109434,17.9753086 0,18.256 0,18.6021975 L0,24.4348395 C0,24.781037 0.29109434,25.0617284 0.650122642,25.0617284 L37.1706321,25.0617284 C37.5296604,25.0617284 37.8207547,24.781037 37.8207547,24.4348395 L37.8207547,18.6021975 Z" id="Path" stroke="#F9F7EF"></path>
                            <path d="M34.5943396,9.85185185 L34.5943396,0.459234568 C34.5943396,0.113037037 34.4353491,0 34.0761415,0 L4.16978302,0 C3.81075472,0 3.40566038,0.113037037 3.40566038,0.459234568 L3.40566038,9.85185185" id="Path" stroke="#F9F7EF"></path>
                            <path d="M0,21.7777778 L0,28" id="Path" stroke="#FFE7DD"></path>
                            <path d="M37.8207547,21.7777778 L37.8207547,28" id="Path" stroke="#FFE7DD"></path>
                            <path d="M27.8796321,9.83595062 C27.8796321,8.28264198 28.2250377,6.64688889 28.2250377,6.64688889 C28.2250377,6.37120988 27.9930943,6.12041975 27.7070189,6.12041975 C27.7070189,6.12041975 26.0963208,6.43948148 24.5143019,6.43948148 C22.932283,6.43948148 21.1491509,6.09985185 21.1491509,6.09985185 C20.8628962,6.09985185 20.6309528,6.31987654 20.6309528,6.5957284 C20.6309528,6.5957284 20.9763585,8.17340741 20.9763585,9.83767901" id="Path" stroke="#F9F7EF"></path>
                            <path d="M17.269566,9.83595062 C17.269566,8.28264198 17.6147925,6.64688889 17.6147925,6.64688889 C17.6147925,6.37120988 17.3828491,6.12041975 17.0969528,6.12041975 C17.0969528,6.12041975 15.4860755,6.43948148 13.9042358,6.43948148 C12.3220377,6.43948148 10.5389057,6.09985185 10.5389057,6.09985185 C10.2526509,6.09985185 10.021066,6.31987654 10.021066,6.5957284 C10.021066,6.5957284 10.3661132,8.17340741 10.3661132,9.83767901" id="Path" stroke="#F9F7EF"></path>
                        </g>
                    </g>
                </g>
            </g>
        </g>
    </g>
</svg>