<?xml version="1.0" encoding="UTF-8"?>
<svg width="46px" height="40px" viewBox="0 0 46 40" version="1.1" xmlns="http://www.w3.org/2000/svg" xmlns:xlink="http://www.w3.org/1999/xlink">
    <!-- Generator: Sketch 58 (84663) - https://sketch.com -->
    <title>Shape</title>
    <desc>Created with Sketch.</desc>
    <g id="Site" stroke="none" stroke-width="1" fill="none" fill-rule="evenodd">
        <g id="Main-Page-Copy-2" transform="translate(-403.000000, -4859.000000)" fill="#F9F7EF" fill-rule="nonzero">
            <g id="Tourism-dentar-paralax" transform="translate(-1.000000, 4530.000000)">
                <g id="Group-12" transform="translate(404.000000, 131.000000)">
                    <g id="iconfinder_travel_bag_4677535" transform="translate(0.000000, 198.000000)">
                        <path d="M45.1320755,5.96541787 L40.0257862,5.96541787 C39.9823899,5.53314121 39.6062893,5.20172911 39.1578616,5.20172911 L32.9955975,5.20172911 C32.518239,5.20172911 32.127673,5.5907781 32.127673,6.06628242 L32.127673,6.09510086 C31.9974843,6.02305476 31.8383648,5.96541787 31.6792453,5.96541787 L30.2616352,5.96541787 L30.2616352,3.21325648 C30.2616352,1.44092219 28.8150943,0 27.0358491,0 L18.9641509,0 C17.1849057,0 15.7383648,1.44092219 15.7383648,3.21325648 L15.7383648,5.96541787 L14.1037736,5.96541787 C13.9880503,5.96541787 13.872327,5.99423631 13.7710692,6.03746398 C13.7566038,5.57636888 13.3805031,5.20172911 12.9031447,5.20172911 L6.7408805,5.20172911 C6.29245283,5.20172911 5.93081761,5.53314121 5.87295597,5.96541787 L0.867924528,5.96541787 C0.390566038,5.96541787 0,6.35446686 0,6.82997118 L0,38.1556196 C0,38.6311239 0.390566038,39.0201729 0.867924528,39.0201729 L5.85849057,39.0201729 L5.85849057,39.1354467 C5.85849057,39.610951 6.2490566,40 6.72641509,40 L12.8886792,40 C13.3660377,40 13.7566038,39.610951 13.7566038,39.1354467 L13.7566038,38.962536 C13.8578616,39.0057637 13.9735849,39.0345821 14.0893082,39.0345821 L31.6937107,39.0345821 C31.8528302,39.0345821 32.0119497,38.9913545 32.1421384,38.9048991 L32.1421384,39.1354467 C32.1421384,39.610951 32.5327044,40 33.0100629,40 L39.172327,40 C39.6496855,40 40.0402516,39.610951 40.0402516,39.1354467 L40.0402516,39.0201729 L45.1320755,39.0201729 C45.609434,39.0201729 46,38.6311239 46,38.1556196 L46,6.82997118 C46,6.35446686 45.609434,5.96541787 45.1320755,5.96541787 Z M1.76477987,37.2910663 L1.76477987,7.6945245 L5.88742138,7.6945245 L5.88742138,37.2910663 L1.76477987,37.2910663 Z M12.0496855,38.2708934 L7.62327044,38.2708934 L7.62327044,6.91642651 L12.0496855,6.91642651 L12.0496855,38.2708934 Z M17.4886792,3.21325648 C17.4886792,2.39193084 18.1540881,1.72910663 18.9786164,1.72910663 L27.0647799,1.72910663 C27.8893082,1.72910663 28.554717,2.39193084 28.554717,3.21325648 L28.554717,5.96541787 L17.5031447,5.96541787 L17.5031447,3.21325648 L17.4886792,3.21325648 Z M31.6937107,37.2910663 L14.118239,37.2910663 C14.0025157,37.2910663 13.8867925,37.3198847 13.7855346,37.3631124 L13.7855346,7.62247839 C13.8867925,7.66570605 14.0025157,7.6945245 14.118239,7.6945245 L16.6207547,7.6945245 L29.4081761,7.6945245 L31.6937107,7.6945245 C31.8528302,7.6945245 32.0119497,7.65129683 32.1421384,7.5648415 L32.1421384,37.4207493 C32.0119497,37.3342939 31.8528302,37.2910663 31.6937107,37.2910663 Z M38.3044025,38.2708934 L33.8779874,38.2708934 L33.8779874,6.91642651 L38.3044025,6.91642651 L38.3044025,38.2708934 Z M44.2641509,37.2910663 L40.0402516,37.2910663 L40.0402516,7.6945245 L44.2641509,7.6945245 L44.2641509,37.2910663 Z" id="Shape"></path>
                    </g>
                </g>
            </g>
        </g>
    </g>
</svg>